<svg width="70" height="70" viewBox="0 0 70 70" fill="none" xmlns="http://www.w3.org/2000/svg">
<rect width="70" height="70" rx="10" fill="#477AE8"/>
<path d="M37.5898 20C44.4466 20 50.0003 25.5533 50.0003 32.4095" stroke="white" stroke-width="2" stroke-linecap="round" stroke-linejoin="round"/>
<path d="M37.5898 25.1707C41.5922 25.1707 44.8293 28.4075 44.8293 32.4095" stroke="white" stroke-width="2" stroke-linecap="round" stroke-linejoin="round"/>
<path d="M26.0378 21.0342C25.5827 21.0342 25.1173 21.1169 24.6726 21.2927L22.4181 22.1614C21.0736 22.6784 20.2773 23.6298 20.0084 25.2948C19.936 27.0425 20.3393 28.997 21.0012 30.9618C23.8453 39.4313 30.5676 46.1531 39.0377 48.997C40.8579 49.6071 42.6574 50.0001 44.3018 50.0001C44.4363 50.0001 44.581 50.0001 44.7155 50.0001C46.3806 49.7312 47.3217 48.9452 47.8491 47.5905L48.7179 45.3361C49.3591 43.6712 48.7592 41.7891 47.27 40.817L44.6224 39.0693C43.9812 38.6453 43.2573 38.4385 42.5333 38.4385C41.4681 38.4385 40.4132 38.8935 39.6686 39.7519L38.8412 40.8067C38.4275 41.3341 37.807 41.6133 37.1761 41.6133C36.7832 41.6133 36.3798 41.4995 36.0178 41.272L35.9661 41.241C33.1014 39.3796 30.6503 36.9287 28.7888 34.0642L28.7577 34.0125C28.1579 33.0921 28.3647 31.8615 29.2231 31.1893L30.278 30.362C31.7156 29.121 32.0155 26.9907 30.9606 25.4085L29.2128 22.7612C28.4992 21.6753 27.2892 21.0652 26.0481 21.0652L26.0378 21.0342Z" stroke="white" stroke-width="2" stroke-linecap="round" stroke-linejoin="round"/>
</svg>
