<svg width="70" height="70" viewBox="0 0 70 70" fill="none" xmlns="http://www.w3.org/2000/svg">
<rect width="70" height="70" rx="10" fill="#477AE8"/>
<path d="M36.2475 19.8598C35.6861 19.2006 34.3152 19.2012 33.7545 19.8611C32.1663 21.73 28.9115 24.2622 23.1647 23.7255C22.5531 23.6684 22 24.1343 22 24.7486V39.5905C22 39.6806 22.0126 39.7677 22.0239 39.8571C22.1953 41.2126 21.6424 48.2965 34.7329 51.9269C34.9037 51.9743 35.0963 51.9742 35.267 51.9266C48.3459 48.2844 47.8057 41.2094 47.9756 39.8589C47.9871 39.7681 48 39.6798 48 39.5883V24.7467C48 24.1331 47.448 23.6673 46.837 23.7236C41.0916 24.2523 37.8367 21.7254 36.2475 19.8598Z" stroke="white" stroke-width="2" stroke-linejoin="round"/>
<path d="M30.1426 35.1515L34.5951 39.6466L41.3876 32.7765" stroke="white" stroke-width="2" stroke-linecap="round" stroke-linejoin="round"/>
</svg>
